<svg width="24" height="21" viewBox="0 0 24 21" fill="none" xmlns="http://www.w3.org/2000/svg">
<g filter="url(#filter0_d)">
<path d="M22 15.2222C22 15.6937 21.7893 16.1459 21.4142 16.4793C21.0391 16.8127 20.5304 17 20 17H4C3.46957 17 2.96086 16.8127 2.58579 16.4793C2.21071 16.1459 2 15.6937 2 15.2222V2.77778C2 2.30628 2.21071 1.8541 2.58579 1.5207C2.96086 1.1873 3.46957 1 4 1H9L11 3.66667H20C20.5304 3.66667 21.0391 3.85397 21.4142 4.18737C21.7893 4.52076 22 4.97295 22 5.44444V15.2222Z" fill="#969CBA" fill-opacity="0.2"/>
<path d="M22 15.2222C22 15.6937 21.7893 16.1459 21.4142 16.4793C21.0391 16.8127 20.5304 17 20 17H4C3.46957 17 2.96086 16.8127 2.58579 16.4793C2.21071 16.1459 2 15.6937 2 15.2222V2.77778C2 2.30628 2.21071 1.8541 2.58579 1.5207C2.96086 1.1873 3.46957 1 4 1H9L11 3.66667H20C20.5304 3.66667 21.0391 3.85397 21.4142 4.18737C21.7893 4.52076 22 4.97295 22 5.44444V15.2222Z" stroke="#969CBA" stroke-width="2" stroke-linecap="round" stroke-linejoin="round"/>
</g>
<defs>
<filter id="filter0_d" x="-3" y="0" width="30" height="26" filterUnits="userSpaceOnUse" color-interpolation-filters="sRGB">
<feFlood flood-opacity="0" result="BackgroundImageFix"/>
<feColorMatrix in="SourceAlpha" type="matrix" values="0 0 0 0 0 0 0 0 0 0 0 0 0 0 0 0 0 0 127 0"/>
<feOffset dy="4"/>
<feGaussianBlur stdDeviation="2"/>
<feColorMatrix type="matrix" values="0 0 0 0 0 0 0 0 0 0 0 0 0 0 0 0 0 0 0.25 0"/>
<feBlend mode="normal" in2="BackgroundImageFix" result="effect1_dropShadow"/>
<feBlend mode="normal" in="SourceGraphic" in2="effect1_dropShadow" result="shape"/>
</filter>
</defs>
</svg>
